<svg version="1.0" xmlns="http://www.w3.org/2000/svg" viewBox="0 0 300.000000 300.000000"
    preserveAspectRatio="xMidYMid meet">

    <g transform="translate(0.000000,300.000000) scale(0.100000,-0.100000)" fill="none" stroke="none">
        <path d="M790 2959 c-70 -9 -160 -58 -226 -124 -47 -47 -144 -195 -144 -220 0
-6 -19 -20 -42 -30 -24 -10 -68 -44 -99 -74 -95 -95 -151 -238 -206 -521 -45
-235 -44 -773 3 -1145 40 -313 136 -655 214 -764 l30 -41 785 0 785 0 10 26
c6 14 10 35 10 47 0 25 -319 426 -353 443 -12 6 -45 17 -73 23 -44 11 -59 10
-100 -4 -216 -73 -552 -14 -759 133 -126 89 -211 184 -269 300 -57 113 -87
305 -50 319 27 10 49 -11 57 -58 37 -196 79 -290 175 -387 112 -114 252 -197
391 -233 95 -25 284 -36 332 -20 18 6 69 15 111 21 95 12 159 1 274 -45 139
-56 273 -86 420 -92 143 -6 191 1 279 43 71 33 122 86 161 169 49 101 52 128
21 159 -15 14 -37 26 -51 26 -23 0 -25 4 -28 47 -3 44 -5 48 -30 51 -23 3 -30
-3 -48 -38 -21 -40 -23 -42 -58 -35 -51 9 -53 12 -46 50 8 43 -3 92 -22 99
-22 9 -55 -18 -79 -62 -19 -37 -21 -38 -54 -30 -30 8 -32 12 -27 36 15 61 17
109 7 135 -19 50 -55 31 -126 -68 -16 -22 -30 -42 -31 -43 -1 -2 -12 -1 -23 3
-16 5 -20 14 -19 54 1 26 -2 53 -6 59 -13 21 -43 13 -73 -21 -29 -33 -30 -33
-60 -19 -28 13 -31 18 -30 61 2 44 1 46 -27 49 -22 3 -34 -3 -50 -22 l-21 -26
-60 36 c-33 20 -93 63 -133 96 -40 33 -95 69 -122 79 -59 22 -230 54 -390 72
l-115 13 55 13 c71 17 193 67 303 125 70 37 98 46 137 46 45 0 50 -2 56 -25
10 -40 37 -49 69 -23 36 28 78 16 83 -25 5 -38 36 -53 68 -32 13 8 24 19 24
24 0 5 19 3 43 -4 l42 -12 3 -66 c4 -80 17 -95 61 -72 24 12 34 27 43 61 12
45 13 45 53 42 l40 -3 3 -65 c3 -87 9 -107 33 -120 36 -20 64 10 94 100 l27
80 37 0 37 0 12 -110 c7 -61 18 -121 24 -135 15 -34 44 -32 82 8 28 27 36 48
56 142 17 81 29 115 44 127 12 10 24 18 27 18 4 0 10 -39 14 -87 8 -96 17
-123 42 -123 36 0 64 44 99 157 25 77 43 118 57 128 22 15 22 14 37 -62 13
-66 19 -78 36 -81 45 -6 94 88 110 209 5 41 12 52 38 68 45 29 90 78 131 146
l37 60 -6 112 c-20 342 -177 570 -447 647 -129 37 -237 47 -667 61 -239 7
-440 11 -448 8 -8 -3 -14 -11 -14 -18 0 -28 182 -126 249 -134 47 -6 68 -27
57 -56 -5 -15 -15 -17 -64 -12 -75 6 -105 22 -357 188 -116 76 -229 145 -250
152 -52 18 -156 26 -225 16z m168 -24 c59 -8 90 -25 309 -169 230 -152 277
-176 354 -183 67 -6 89 5 89 45 0 37 -27 62 -67 62 -19 0 -55 9 -81 21 -55 25
-165 90 -160 95 2 1 199 -3 438 -11 457 -15 560 -25 693 -70 96 -33 170 -80
232 -147 101 -112 149 -238 167 -438 12 -130 12 -131 -12 -177 -31 -57 -100
-135 -144 -162 -29 -18 -34 -28 -39 -74 -11 -93 -57 -197 -87 -197 -10 0 -33
128 -26 145 8 21 -22 19 -60 -4 -26 -16 -35 -33 -64 -130 -33 -107 -65 -161
-88 -147 -6 3 -13 48 -17 100 -8 105 -16 116 -65 91 -32 -16 -30 -12 -61 -148
-22 -98 -53 -157 -84 -157 -19 0 -24 20 -37 152 l-12 119 -54 -3 -54 -3 -28
-79 c-33 -92 -51 -116 -74 -96 -12 9 -16 33 -16 96 0 93 4 89 -82 96 -36 4
-37 3 -49 -42 -12 -45 -43 -85 -60 -74 -5 3 -9 31 -9 62 0 31 -4 63 -9 70 -4
7 -29 19 -55 27 -47 14 -48 14 -70 -12 -26 -30 -41 -26 -49 15 -10 49 -79 68
-113 31 -17 -19 -19 -19 -31 -3 -7 10 -13 26 -13 36 0 15 -9 18 -62 18 -57 0
-74 -6 -188 -64 -122 -62 -242 -107 -327 -121 -47 -7 -56 -22 -20 -30 12 -3
117 -18 233 -35 276 -39 310 -50 418 -136 48 -38 115 -86 149 -106 l61 -37 19
29 c11 17 28 30 39 30 18 0 20 -4 14 -45 -7 -44 -7 -44 33 -65 22 -11 44 -20
48 -20 4 0 18 16 31 35 12 19 28 35 36 35 19 0 26 -35 15 -72 -5 -18 -8 -33
-6 -34 1 -1 19 -9 39 -17 l37 -16 47 69 c26 38 54 72 62 75 33 13 41 -40 17
-119 -8 -28 -12 -53 -8 -57 13 -11 98 -29 101 -21 9 25 64 102 72 102 17 0 23
-50 12 -88 -7 -20 -8 -39 -4 -43 4 -4 31 -14 60 -22 l54 -15 26 44 c40 66 55
66 50 -1 l-5 -55 37 0 c24 0 43 -7 55 -20 16 -18 17 -25 5 -63 -35 -118 -89
-186 -188 -234 l-76 -38 -161 1 c-179 1 -265 19 -440 87 -124 48 -194 60 -286
47 -41 -6 -90 -15 -108 -22 -44 -14 -232 -4 -318 17 -193 46 -413 209 -488
362 -36 74 -53 130 -66 217 -10 75 -29 106 -64 106 -43 0 -58 -23 -56 -81 6
-171 79 -329 215 -465 131 -132 259 -203 456 -255 120 -31 312 -32 422 -1 72
20 79 21 135 6 32 -8 65 -23 74 -32 61 -63 319 -397 319 -412 0 -53 52 -50
-785 -50 -878 0 -781 -11 -833 95 -67 135 -145 443 -176 695 -39 319 -49 799
-21 1017 31 238 92 455 155 553 40 62 117 134 161 150 30 11 42 25 79 99 75
147 202 253 325 271 49 7 78 6 163 -5z" />
        <path d="M830 2617 c-91 -31 -89 -174 5 -286 15 -17 30 -31 34 -31 5 0 11 32
14 71 6 73 23 111 56 128 18 10 19 5 26 -82 4 -50 14 -109 23 -130 14 -38 15
-38 56 -32 62 10 101 32 148 83 l42 46 -69 63 c-39 35 -108 91 -154 123 -89
64 -113 70 -181 47z m200 -86 c58 -43 121 -95 139 -115 l35 -36 -35 -36 c-56
-58 -135 -88 -159 -59 -7 8 -17 64 -23 125 -13 128 -22 138 -77 83 -30 -31
-39 -48 -45 -90 -4 -29 -3 -58 1 -65 4 -7 -5 -2 -19 11 -37 33 -70 125 -64
174 6 44 29 74 61 80 67 13 80 8 186 -72z" />
        <path d="M2420 2460 c-27 -27 -26 -37 14 -95 40 -61 102 -95 170 -95 57 0 65
14 42 73 -40 104 -171 172 -226 117z m131 -29 c41 -26 89 -96 89 -131 0 -5
-19 -10 -42 -10 -60 0 -116 35 -152 94 -29 47 -30 49 -11 62 29 22 67 17 116
-15z" />
    </g>

    <style>
        path {
            fill: #000;
        }

        @media (prefers-color-scheme: dark) {
            path {
                fill: #FFF;
            }
        }
    </style>
</svg>